<svg width="134" height="107" viewBox="0 0 134 107" fill="none" xmlns="http://www.w3.org/2000/svg">
<path d="M67.7119 17.8055L47.4444 34.1898C44.0734 36.9066 43.4244 41.7969 45.9787 45.2869C48.6797 49.0068 53.935 49.7383 57.5572 46.917L78.3481 30.7834C79.8138 29.6549 81.9075 29.9057 83.0591 31.3686C84.2106 32.8314 83.9384 34.9213 82.4728 36.0707L78.0969 39.4563L107.2 66.2063V26.75H107.053L106.237 26.2275L91.0362 16.5098C87.8328 14.4617 84.085 13.375 80.2744 13.375C75.71 13.375 71.2712 14.9424 67.7119 17.8055ZM72.4856 43.8031L61.6609 52.2043C55.0656 57.3453 45.4972 56.0078 40.5559 49.2367C35.9078 42.8627 37.0803 33.96 43.215 29.007L60.635 14.9424C58.2062 13.9184 55.5891 13.3959 52.93 13.3959C48.9937 13.375 45.1622 14.5453 41.875 16.7188L26.8 26.75V73.5625H32.7044L51.8413 90.9918C55.945 94.7326 62.2891 94.44 66.0369 90.3439C67.1884 89.0691 67.9631 87.5854 68.3609 86.0389L71.9203 89.299C76.0031 93.0398 82.3681 92.7682 86.1159 88.693C87.0581 87.669 87.7491 86.4777 88.1888 85.2447C92.2506 87.9615 97.7781 87.3973 101.191 83.6773C104.939 79.6021 104.667 73.249 100.584 69.5082L72.4856 43.8031ZM3.35 26.75C1.5075 26.75 0 28.2547 0 30.0938V73.5625C0 77.2615 2.99406 80.25 6.7 80.25H13.4C17.1059 80.25 20.1 77.2615 20.1 73.5625V26.75H3.35ZM10.05 66.875C10.9385 66.875 11.7906 67.2273 12.4188 67.8544C13.0471 68.4814 13.4 69.3319 13.4 70.2188C13.4 71.1056 13.0471 71.9561 12.4188 72.5831C11.7906 73.2102 10.9385 73.5625 10.05 73.5625C9.16152 73.5625 8.30944 73.2102 7.68119 72.5831C7.05295 71.9561 6.7 71.1056 6.7 70.2188C6.7 69.3319 7.05295 68.4814 7.68119 67.8544C8.30944 67.2273 9.16152 66.875 10.05 66.875ZM113.9 26.75V73.5625C113.9 77.2615 116.894 80.25 120.6 80.25H127.3C131.006 80.25 134 77.2615 134 73.5625V30.0938C134 28.2547 132.492 26.75 130.65 26.75H113.9ZM120.6 70.2188C120.6 69.3319 120.953 68.4814 121.581 67.8544C122.209 67.2273 123.062 66.875 123.95 66.875C124.838 66.875 125.691 67.2273 126.319 67.8544C126.947 68.4814 127.3 69.3319 127.3 70.2188C127.3 71.1056 126.947 71.9561 126.319 72.5831C125.691 73.2102 124.838 73.5625 123.95 73.5625C123.062 73.5625 122.209 73.2102 121.581 72.5831C120.953 71.9561 120.6 71.1056 120.6 70.2188Z" fill="#0A9DB2"/>
</svg>
