<svg width="138" height="138" viewBox="0 0 138 138" fill="none" xmlns="http://www.w3.org/2000/svg">
<path d="M51.75 51.75C51.75 41.975 59.225 34.5 69 34.5C78.775 34.5 86.25 41.975 86.25 51.75C86.25 61.525 78.775 69 69 69C59.225 69 51.75 61.525 51.75 51.75ZM69 80.5C42.55 80.5 34.5 99.475 34.5 99.475V109.25H103.5V99.475C103.5 99.475 95.45 80.5 69 80.5Z" fill="#0A9DB2"/>
<path d="M106.375 63.25C114.314 63.25 120.75 56.8141 120.75 48.875C120.75 40.9359 114.314 34.5 106.375 34.5C98.4359 34.5 92 40.9359 92 48.875C92 56.8141 98.4359 63.25 106.375 63.25Z" fill="#0A9DB2"/>
<path d="M106.375 74.75C99.4749 74.75 94.2999 76.475 90.2749 79.35C103.5 85.675 108.675 96.6 108.675 97.75V98.325H132.25V90.85C132.25 90.275 125.925 74.75 106.375 74.75Z" fill="#0A9DB2"/>
<path d="M106.375 63.25C114.314 63.25 120.75 56.8141 120.75 48.875C120.75 40.9359 114.314 34.5 106.375 34.5C98.4359 34.5 92 40.9359 92 48.875C92 56.8141 98.4359 63.25 106.375 63.25Z" fill="#0A9DB2"/>
<path d="M106.375 74.75C99.4749 74.75 94.2999 76.475 90.2749 79.35C103.5 85.675 108.675 96.6 108.675 97.75V98.325H132.25V90.85C132.25 90.275 125.925 74.75 106.375 74.75Z" fill="#0A9DB2"/>
<path d="M31.625 63.25C39.5641 63.25 46 56.8141 46 48.875C46 40.9359 39.5641 34.5 31.625 34.5C23.6859 34.5 17.25 40.9359 17.25 48.875C17.25 56.8141 23.6859 63.25 31.625 63.25Z" fill="#0A9DB2"/>
<path d="M31.625 74.75C38.525 74.75 43.7 76.475 47.725 79.35C34.5 85.675 29.325 96.6 29.325 97.75V98.325H5.75V90.85C5.75 90.275 12.075 74.75 31.625 74.75Z" fill="#0A9DB2"/>
</svg>
