<svg width="118" height="118" viewBox="0 0 118 118" fill="none" xmlns="http://www.w3.org/2000/svg">
<path d="M59.2445 69C72.8215 69 83.8278 55.7924 83.8278 39.5C83.8278 23.2076 72.8215 10 59.2445 10C45.6675 10 34.6611 23.2076 34.6611 39.5C34.6611 55.7924 45.6675 69 59.2445 69Z" fill="#0A9DB2"/>
<path d="M107.428 94.0749C103.003 85.2249 94.6446 77.8499 83.8279 73.4249C80.8779 72.4416 77.4362 72.4416 74.9779 73.9166C70.0612 76.8666 65.1446 78.3416 59.2446 78.3416C53.3446 78.3416 48.4279 76.8666 43.5112 73.9166C41.0529 72.9333 37.6112 72.4416 34.6612 73.9166C23.8446 78.3416 15.4862 85.7166 11.0612 94.5666C7.61956 100.958 13.0279 108.333 20.4029 108.333H98.0862C105.461 108.333 110.87 100.958 107.428 94.0749Z" fill="#0A9DB2"/>
</svg>
